<?xml version="1.0" standalone="no"?>
<!DOCTYPE svg PUBLIC "-//W3C//DTD SVG 20010904//EN"
 "http://www.w3.org/TR/2001/REC-SVG-20010904/DTD/svg10.dtd">
<svg version="1.0" xmlns="http://www.w3.org/2000/svg"
 width="225.000000pt" height="225.000000pt" viewBox="0 0 225.000000 225.000000"
 preserveAspectRatio="xMidYMid meet">

<g transform="translate(0.000000,225.000000) scale(0.100000,-0.100000)"
fill="#000000" stroke="none">
<path d="M973 2240 c-163 -23 -349 -95 -488 -188 -86 -58 -215 -185 -276 -272
-436 -616 -156 -1476 558 -1716 207 -70 486 -73 688 -8 378 122 650 410 755
799 27 98 38 325 21 431 -84 542 -530 941 -1071 959 -69 2 -153 0 -187 -5z
m871 -422 c21 -22 25 -46 10 -58 -8 -7 -14 -19 -14 -26 0 -10 -13 -14 -40 -14
-40 0 -40 0 -40 40 0 35 4 42 33 54 17 8 33 15 35 15 2 1 9 -5 16 -11z m-25
-323 c62 -32 115 -88 147 -158 24 -53 26 -68 22 -145 -3 -53 -11 -99 -20 -118
-27 -49 -109 -136 -125 -130 -8 3 -11 1 -8 -4 10 -16 -81 -52 -145 -57 -66 -6
-189 24 -154 38 18 7 18 8 -1 9 l-20 1 20 9 c15 6 6 9 -32 9 -48 1 -54 4 -87
43 -49 56 -76 133 -76 213 0 246 259 403 479 290z m-1088 15 c49 -25 69 -52
69 -91 0 -20 -8 -46 -17 -58 -17 -21 -20 -21 -49 -7 -76 38 -181 38 -239 0
-69 -45 -87 -195 -32 -267 32 -42 80 -60 147 -55 l45 3 3 48 3 47 -54 0 c-61
0 -67 6 -67 70 0 63 15 70 142 70 152 0 148 5 148 -170 0 -151 1 -148 -70
-186 -29 -16 -57 -19 -165 -19 -116 0 -135 2 -177 24 -63 31 -125 94 -138 140
-11 43 -11 57 1 53 5 -1 9 5 9 13 0 16 34 38 44 28 3 -3 6 3 6 15 0 16 5 20
18 16 10 -4 13 -3 6 3 -13 10 -74 156 -74 177 0 43 111 128 199 153 55 16 207
11 242 -7z m649 -36 c0 -45 -13 -82 -34 -96 -6 -4 -44 -8 -83 -8 l-73 0 0
-218 c0 -243 -3 -255 -64 -265 -18 -3 -53 -3 -76 0 l-42 6 2 101 c1 56 2 163
1 239 l-1 137 -85 0 c-81 0 -85 1 -86 23 -3 67 10 103 44 117 12 5 129 9 260
9 l237 1 0 -46z m150 -684 c0 -13 -28 -25 -38 -16 -3 4 0 11 8 16 20 13 30 12
30 0z m158 -8 c2 -7 -3 -12 -12 -12 -9 0 -16 7 -16 16 0 17 22 14 28 -4z
m-890 -50 c3 -47 1 -53 -20 -61 -31 -12 -62 8 -66 43 -3 22 2 29 27 39 17 6
31 18 31 25 0 8 6 12 13 10 7 -3 13 -26 15 -56z m400 0 c3 -47 1 -53 -20 -61
-40 -15 -68 5 -68 47 0 17 8 27 30 35 17 6 30 18 30 25 0 8 6 12 13 10 7 -3
13 -26 15 -56z m-770 29 c3 -10 0 -12 -12 -8 -26 10 -46 -3 -46 -29 0 -25 25
-43 38 -29 4 4 1 10 -5 12 -23 8 -14 23 13 23 22 0 25 -4 22 -26 -4 -33 -36
-47 -69 -30 -30 15 -38 66 -13 90 19 20 65 18 72 -3z m960 -8 l10 -28 11 28
c15 39 37 34 45 -10 9 -58 7 -73 -9 -73 -10 0 -15 11 -16 38 -1 31 -2 33 -8
13 -9 -33 -29 -38 -40 -9 -9 21 -10 21 -10 -9 -1 -22 -6 -33 -16 -33 -11 0
-15 12 -15 48 0 27 3 52 7 55 14 15 32 6 41 -20z m-878 -3 c0 -6 -7 -13 -15
-16 -9 -4 -15 -19 -15 -35 0 -19 -5 -29 -15 -29 -22 0 -20 66 3 79 22 13 42
14 42 1z m71 0 c28 -15 26 -68 -3 -79 -12 -4 -31 -6 -41 -3 -27 7 -18 45 13
52 15 4 20 9 13 13 -6 4 -18 4 -27 1 -9 -3 -16 -2 -16 3 0 24 29 30 61 13z
m109 -9 c15 -29 13 -71 -4 -71 -9 0 -16 12 -18 33 -2 17 -7 32 -13 32 -5 0
-11 -15 -13 -32 -4 -45 -32 -45 -32 0 0 18 5 38 12 45 18 18 56 14 68 -7z
m188 7 c19 -19 14 -33 -15 -45 l-28 -11 28 -1 c31 -1 36 -16 8 -24 -47 -12
-84 59 -43 82 23 14 36 13 50 -1z m90 -7 c2 -7 -4 -21 -14 -32 -16 -18 -16
-19 4 -19 12 0 22 -4 22 -10 0 -5 -18 -10 -40 -10 -45 0 -48 5 -23 33 17 18
17 19 -1 29 -15 8 -16 12 -5 19 18 11 52 5 57 -10z m80 10 c13 -8 20 -66 9
-77 -11 -12 -59 -7 -67 6 -13 21 0 40 27 40 14 0 22 4 18 10 -4 6 -15 8 -26 5
-18 -6 -26 5 -12 18 9 9 35 8 51 -2z m230 -3 c19 -19 14 -36 -15 -46 l-28 -10
28 -1 c31 -1 36 -16 8 -24 -47 -12 -84 59 -43 82 23 14 36 13 50 -1z m266 -4
c22 -21 21 -23 -16 -39 l-33 -14 28 -1 c30 0 36 -14 11 -24 -25 -10 -64 20
-64 49 0 39 46 58 74 29z m50 0 c6 -15 8 -15 25 0 17 16 18 14 17 -29 -1 -44
-8 -56 -22 -34 -4 8 -9 8 -17 0 -6 -6 -17 -11 -24 -11 -10 0 -10 5 -1 25 8 18
8 28 0 38 -7 8 -9 17 -5 20 11 11 21 8 27 -9z m94 -32 c2 -33 0 -42 -12 -42
-12 0 -16 11 -16 46 0 59 24 55 28 -4z m80 31 c2 -8 -5 -13 -17 -13 -14 0 -21
-6 -21 -20 0 -13 7 -20 20 -20 11 0 20 -4 20 -10 0 -14 -43 -13 -58 2 -18 18
-15 55 6 67 21 13 44 10 50 -6z m83 7 c38 -21 19 -82 -26 -82 -43 0 -61 45
-29 76 18 19 28 20 55 6z"/>
<path d="M1657 1350 c-80 -27 -114 -54 -128 -100 -23 -78 17 -159 91 -181 99
-30 190 38 190 143 0 28 3 38 9 29 7 -11 10 -9 15 7 4 11 6 24 5 28 -5 28 1
34 22 23 14 -7 25 -7 31 -1 16 16 -73 62 -128 67 -32 3 -69 -3 -107 -15z m228
-48 c-3 -3 -11 0 -18 7 -9 10 -8 11 6 5 10 -3 15 -9 12 -12z"/>
<path d="M746 733 c-12 -12 -6 -43 9 -43 8 0 15 9 15 19 0 21 -13 34 -24 24z"/>
<path d="M1146 733 c-12 -12 -6 -43 9 -43 8 0 15 9 15 19 0 21 -13 34 -24 24z"/>
<path d="M550 700 c-13 -8 -12 -10 3 -10 9 0 17 5 17 10 0 12 -1 12 -20 0z"/>
<path d="M840 730 c0 -5 7 -10 16 -10 8 0 12 5 9 10 -3 6 -10 10 -16 10 -5 0
-9 -4 -9 -10z"/>
<path d="M1018 693 c7 -3 16 -2 19 1 4 3 -2 6 -13 5 -11 0 -14 -3 -6 -6z"/>
<path d="M1240 730 c0 -5 7 -10 16 -10 8 0 12 5 9 10 -3 6 -10 10 -16 10 -5 0
-9 -4 -9 -10z"/>
<path d="M1505 730 c-3 -5 1 -10 10 -10 9 0 13 5 10 10 -3 6 -8 10 -10 10 -2
0 -7 -4 -10 -10z"/>
<path d="M1810 710 c0 -11 7 -20 15 -20 8 0 15 9 15 20 0 11 -7 20 -15 20 -8
0 -15 -9 -15 -20z"/>
</g>
</svg>
